<?xml version="1.0" encoding="UTF-8" standalone="no"?>
<!DOCTYPE svg PUBLIC "-//W3C//DTD SVG 1.1//EN" "http://www.w3.org/Graphics/SVG/1.1/DTD/svg11.dtd">
<svg width="100%" height="100%" viewBox="0 0 47 47" version="1.1" xmlns="http://www.w3.org/2000/svg" xmlns:xlink="http://www.w3.org/1999/xlink" xml:space="preserve" xmlns:serif="http://www.serif.com/" style="fill-rule:evenodd;clip-rule:evenodd;stroke-linejoin:round;stroke-miterlimit:1.41421;">
    <g transform="matrix(1,0,0,1,-254.09,-2951.1)">
        <g transform="matrix(0.0902434,1.10516e-17,-1.10516e-17,0.0902434,277.192,2974.2)">
            <g transform="matrix(1,0,0,1,-256,-256)">
                <clipPath id="_clip1">
                    <rect x="0" y="0" width="512" height="512"/>
                </clipPath>
                <g clip-path="url(#_clip1)">
                    <g transform="matrix(1,0,0,1,0,31)">
                        <path d="M497.094,60.004C497.063,60.004 497.031,60 497,60L361,60L361,45C361,20.188 340.813,0 316,0L196,0C171.188,0 151,20.188 151,45L151,60L15,60C6.648,60 0,66.844 0,75L0,405C0,429.813 20.188,450 45,450L467,450C491.813,450 512,429.813 512,405L512,75.316L512,75.258C511.426,65.406 505.367,60.059 497.094,60.004ZM181,45C181,36.73 187.73,30 196,30L316,30C324.27,30 331,36.73 331,45L331,60L181,60L181,45ZM476.188,90L429.605,229.742C427.562,235.879 421.844,240 415.379,240L331,240L331,225C331,216.715 324.285,210 316,210L196,210C187.715,210 181,216.715 181,225L181,240L96.621,240C90.156,240 84.438,235.879 82.395,229.742L35.813,90L476.188,90ZM301,240L301,270L211,270L211,240L301,240ZM482,405C482,413.27 475.27,420 467,420L45,420C36.73,420 30,413.27 30,405L30,167.434L53.934,239.23C60.066,257.637 77.223,270 96.621,270L181,270L181,285C181,293.285 187.715,300 196,300L316,300C324.285,300 331,293.285 331,285L331,270L415.379,270C434.777,270 451.934,257.637 458.066,239.23L482,167.434L482,405Z" style="fill-rule:nonzero;stroke:black;stroke-width:1px;"/>
                    </g>
                </g>
            </g>
        </g>
    </g>
</svg>
