<?xml version="1.0" encoding="UTF-8" standalone="no"?>
<!DOCTYPE svg PUBLIC "-//W3C//DTD SVG 1.1//EN" "http://www.w3.org/Graphics/SVG/1.1/DTD/svg11.dtd">
<svg width="100%" height="100%" viewBox="0 0 68 68" version="1.1" xmlns="http://www.w3.org/2000/svg" xmlns:xlink="http://www.w3.org/1999/xlink" xml:space="preserve" xmlns:serif="http://www.serif.com/" style="fill-rule:evenodd;clip-rule:evenodd;stroke-linejoin:round;stroke-miterlimit:1.41421;">
    <g transform="matrix(1,0,0,1,-87.1473,-2964.42)">
        <g>
            <g transform="matrix(0.273941,3.35481e-17,-3.35481e-17,0.273941,50.5325,2927.8)">
                <path d="M305,256C305,283.063 283.063,305 256,305C228.938,305 207,283.063 207,256C207,228.938 228.938,207 256,207C283.063,207 305,228.938 305,256Z" style="fill-rule:nonzero;stroke:black;stroke-width:3.65px;"/>
            </g>
            <g transform="matrix(0.273941,3.35481e-17,-3.35481e-17,0.273941,50.5325,2927.8)">
                <path d="M370.594,169.305C368.238,162.922 364.48,157.145 359.598,152.402C354.855,147.52 349.082,143.762 342.695,141.406C337.516,139.395 329.734,137 315.402,136.348C299.898,135.641 295.25,135.488 256,135.488C216.746,135.488 212.098,135.637 196.598,136.344C182.266,137 174.48,139.395 169.305,141.406C162.918,143.762 157.141,147.52 152.402,152.402C147.52,157.145 143.762,162.918 141.402,169.305C139.391,174.484 136.996,182.27 136.344,196.602C135.637,212.102 135.484,216.75 135.484,256.004C135.484,295.254 135.637,299.902 136.344,315.406C136.996,329.738 139.391,337.52 141.402,342.699C143.762,349.086 147.516,354.859 152.398,359.602C157.141,364.484 162.914,368.242 169.301,370.598C174.48,372.613 182.266,375.008 196.598,375.66C212.098,376.367 216.742,376.516 255.996,376.516C295.254,376.516 299.902,376.367 315.398,375.66C329.73,375.008 337.516,372.613 342.695,370.598C355.516,365.652 365.648,355.52 370.594,342.699C372.605,337.52 375,329.738 375.656,315.406C376.363,299.902 376.512,295.254 376.512,256.004C376.512,216.75 376.363,212.102 375.656,196.602C375.004,182.27 372.609,174.484 370.594,169.305ZM256,331.484C214.309,331.484 180.512,297.691 180.512,256C180.512,214.309 214.309,180.516 256,180.516C297.688,180.516 331.484,214.309 331.484,256C331.484,297.691 297.688,331.484 256,331.484ZM334.469,195.172C324.727,195.172 316.828,187.273 316.828,177.531C316.828,167.789 324.727,159.891 334.469,159.891C344.211,159.891 352.109,167.789 352.109,177.531C352.105,187.273 344.211,195.172 334.469,195.172Z" style="fill-rule:nonzero;stroke:black;stroke-width:3.65px;"/>
            </g>
        </g>
    </g>
</svg>
