<?xml version="1.0" encoding="UTF-8" standalone="no"?>
<!DOCTYPE svg PUBLIC "-//W3C//DTD SVG 1.1//EN" "http://www.w3.org/Graphics/SVG/1.1/DTD/svg11.dtd">
<svg width="100%" height="100%" viewBox="0 0 80 53" version="1.1" xmlns="http://www.w3.org/2000/svg" xmlns:xlink="http://www.w3.org/1999/xlink" xml:space="preserve" xmlns:serif="http://www.serif.com/" style="fill-rule:evenodd;clip-rule:evenodd;stroke-linejoin:round;stroke-miterlimit:2;">
    <g transform="matrix(1,0,0,1,-122.875,-2930.8)">
        <g transform="matrix(0.164034,1.13604e-19,1.1165e-19,0.160301,175.019,2961.89)">
            <path d="M0,-58.335L129.065,-143.259L129.065,83.185L0,-58.335ZM-135.973,-46.96L-86.403,-14.334C-83.435,-12.395 -80.036,-11.415 -76.637,-11.415C-73.239,-11.415 -69.84,-12.395 -66.881,-14.334L-17.313,-46.96L116.781,100.098L-270.076,100.098L-135.973,-46.96ZM-76.637,-50.439L-240.818,-158.433L87.523,-158.433L-76.637,-50.439ZM-282.361,-143.259L-153.295,-58.356L-282.361,83.185L-282.361,-143.259ZM164.46,-177.425C164.411,-178.145 164.38,-178.884 164.25,-179.584C164.121,-180.224 163.911,-180.804 163.721,-181.423C163.561,-181.923 163.451,-182.423 163.251,-182.923C162.921,-183.722 162.501,-184.462 162.062,-185.201C161.912,-185.441 161.822,-185.722 161.662,-185.961C161.642,-185.981 161.622,-186.001 161.612,-186.022C161.052,-186.861 160.402,-187.641 159.712,-188.36C159.323,-188.78 158.903,-189.14 158.473,-189.5C157.914,-190 157.354,-190.52 156.734,-190.939C156.354,-191.199 155.934,-191.359 155.535,-191.599C154.924,-191.939 154.325,-192.318 153.675,-192.599C153.585,-192.618 153.495,-192.639 153.405,-192.679C151.976,-193.238 150.437,-193.578 148.857,-193.758C148.217,-193.838 147.598,-193.938 146.958,-193.958L146.828,-193.958L-300.123,-193.958L-300.273,-193.958C-300.723,-193.938 -301.163,-193.857 -301.612,-193.818C-304.461,-193.578 -307.11,-192.698 -309.419,-191.279C-309.609,-191.159 -309.819,-191.079 -310.009,-190.959C-310.819,-190.419 -311.558,-189.779 -312.258,-189.12C-312.518,-188.86 -312.778,-188.62 -313.028,-188.34C-313.708,-187.62 -314.347,-186.881 -314.907,-186.041C-314.917,-186.022 -314.947,-186.001 -314.967,-185.961C-315.177,-185.642 -315.297,-185.302 -315.487,-184.981C-315.867,-184.302 -316.256,-183.643 -316.546,-182.923C-316.766,-182.402 -316.896,-181.843 -317.056,-181.303C-317.226,-180.724 -317.436,-180.184 -317.546,-179.604C-317.686,-178.864 -317.726,-178.105 -317.776,-177.365C-317.795,-176.965 -317.886,-176.606 -317.886,-176.205L-317.886,117.851C-317.886,127.666 -309.939,135.623 -300.123,135.623L146.828,135.623C156.634,135.623 164.59,127.666 164.59,117.851L164.59,-176.205C164.59,-176.625 164.491,-177.025 164.46,-177.425" style="fill-rule:nonzero;"/>
        </g>
    </g>
</svg>
