<?xml version="1.0" encoding="UTF-8" standalone="no"?>
<!DOCTYPE svg PUBLIC "-//W3C//DTD SVG 1.1//EN" "http://www.w3.org/Graphics/SVG/1.1/DTD/svg11.dtd">
<svg width="100%" height="100%" viewBox="0 0 49 76" version="1.1" xmlns="http://www.w3.org/2000/svg" xmlns:xlink="http://www.w3.org/1999/xlink" xml:space="preserve" xmlns:serif="http://www.serif.com/" style="fill-rule:evenodd;clip-rule:evenodd;stroke-linejoin:round;stroke-miterlimit:2;">
    <g transform="matrix(1,0,0,1,-137.441,-2919.3)">
        <g transform="matrix(0.169707,0,0,0.167159,171.664,2943.24)">
            <path d="M0,167.29C-0.5,167.29 -1,167.31 -1.495,167.31C-12.13,167.31 -22.896,165.07 -33.231,160.873C-44.046,156.454 -54.412,149.877 -63.653,141.361C-72.899,132.845 -81.026,122.429 -87.418,110.353C-93.8,98.279 -97.819,85.664 -99.638,73.229C-101.452,60.815 -101.052,48.54 -98.593,37.125C-96.139,25.71 -91.611,15.114 -85.174,6.058C-82.71,2.58 -79.881,-0.579 -76.868,-3.558L-150.611,-143.159C-162.596,-133.483 -172.652,-121.408 -180.439,-107.174C-191.709,-86.583 -198.546,-61.774 -200.815,-34.385C-203.079,-7.017 -200.81,22.971 -193.828,53.898C-186.841,84.845 -175.171,116.751 -158.673,147.978C-142.175,179.225 -122.398,206.853 -100.777,230.063C-79.157,253.273 -55.687,272.046 -31.787,285.6C-7.892,299.174 16.458,307.49 39.808,309.79C44.161,310.229 48.479,310.449 52.748,310.449C64.358,310.449 75.638,308.83 86.428,305.571L12.615,165.851C8.457,166.65 4.248,167.21 0,167.29" style="fill-rule:nonzero;"/>
        </g>
    </g>
</svg>
