<?xml version="1.0" encoding="UTF-8" standalone="no"?>
<!DOCTYPE svg PUBLIC "-//W3C//DTD SVG 1.1//EN" "http://www.w3.org/Graphics/SVG/1.1/DTD/svg11.dtd">
<svg width="100%" height="100%" viewBox="0 0 50 49" version="1.1" xmlns="http://www.w3.org/2000/svg" xmlns:xlink="http://www.w3.org/1999/xlink" xml:space="preserve" xmlns:serif="http://www.serif.com/" style="fill-rule:evenodd;clip-rule:evenodd;stroke-linejoin:round;stroke-miterlimit:2;">
    <g transform="matrix(1,0,0,1,-253.419,-2932.79)">
        <g transform="matrix(0.0874073,1.07043e-17,-1.06207e-17,0.0867245,278.043,2957.22)">
            <g transform="matrix(1,0,0,1,-281.715,-281.715)">
                <path d="M280.79,314.559C364.056,314.559 431.593,247.021 431.593,163.756C431.593,80.491 364.055,13.415 280.79,13.415C197.525,13.415 129.987,80.953 129.987,163.756C129.987,246.559 197.524,314.559 280.79,314.559ZM280.79,52.735C341.851,52.735 391.811,102.694 391.811,163.756C391.811,224.818 341.851,274.776 280.79,274.776C219.729,274.776 169.769,224.817 169.769,163.755C169.769,102.693 219.728,52.735 280.79,52.735Z" style="fill-rule:nonzero;"/>
                <path d="M19.891,550.015L543.539,550.015C554.641,550.015 563.43,541.226 563.43,530.124C563.43,426.042 478.777,340.926 374.232,340.926L189.198,340.926C85.116,340.926 0,425.579 0,530.124C0,541.226 8.789,550.015 19.891,550.015ZM189.198,380.708L374.232,380.708C450.096,380.708 512.545,437.144 522.26,510.232L41.17,510.232C50.884,437.607 113.334,380.708 189.198,380.708Z" style="fill-rule:nonzero;"/>
            </g>
        </g>
    </g>
</svg>
