<?xml version="1.0" encoding="UTF-8" standalone="no"?>
<!DOCTYPE svg PUBLIC "-//W3C//DTD SVG 1.1//EN" "http://www.w3.org/Graphics/SVG/1.1/DTD/svg11.dtd">
<svg width="100%" height="100%" viewBox="0 0 76 75" version="1.1" xmlns="http://www.w3.org/2000/svg" xmlns:xlink="http://www.w3.org/1999/xlink" xml:space="preserve" xmlns:serif="http://www.serif.com/" style="fill-rule:evenodd;clip-rule:evenodd;stroke-linejoin:round;stroke-miterlimit:2;">
    <g transform="matrix(1,0,0,1,-921.179,-1327.8)">
        <g transform="matrix(0.169721,7.8491e-32,-7.69664e-32,0.166425,981.472,1343.08)">
            <path d="M0,263.489C-1.339,264.818 -2.858,265.998 -4.238,267.297L-44.82,267.297C-29.757,231.682 -21.17,187.65 -20.171,141.02L54.107,141.02C51.838,187.27 32.986,230.463 0,263.489M-317.535,141.02L-243.246,141.02C-242.237,187.65 -233.66,231.682 -218.587,267.297L-259.189,267.297C-260.549,265.998 -262.068,264.818 -263.408,263.489C-296.414,230.463 -315.266,187.27 -317.535,141.02M-263.408,-0.04C-262.068,-1.329 -260.549,-2.509 -259.189,-3.908L-218.587,-3.908C-233.66,31.806 -242.237,75.738 -243.246,122.368L-317.535,122.368C-315.266,76.108 -296.414,32.926 -263.408,-0.04M-122.388,122.368L-122.388,-3.908L-65.252,-3.908C-49.129,30.767 -39.883,74.968 -38.803,122.368L-122.388,122.368ZM-122.388,267.297L-122.388,141.02L-38.803,141.02C-39.883,188.52 -49.129,232.721 -65.252,267.297L-122.388,267.297ZM-53.777,285.889L-27.238,285.889C-39.413,294.185 -52.527,300.883 -66.231,306.03C-61.823,299.943 -57.695,293.266 -53.777,285.889M-122.388,317.576L-122.388,285.889L-75.088,285.889C-82.795,298.513 -91.24,308.24 -100.137,315.207C-107.444,316.376 -114.891,317.166 -122.388,317.576M-188.32,285.889L-141.029,285.889L-141.029,317.576C-148.557,317.166 -155.974,316.376 -163.291,315.207C-172.167,308.24 -180.643,298.513 -188.32,285.889M-209.631,285.889C-205.713,293.266 -201.594,299.943 -197.196,306.03C-210.92,300.883 -224.005,294.185 -236.189,285.889L-209.631,285.889ZM-141.029,141.02L-141.029,267.297L-198.166,267.297C-214.289,232.721 -223.535,188.52 -224.625,141.02L-141.029,141.02ZM-141.029,-3.908L-141.029,122.368L-224.625,122.368C-223.535,74.968 -214.289,30.767 -198.166,-3.908L-141.029,-3.908ZM-209.631,-22.501L-236.189,-22.501C-224.005,-30.797 -210.92,-37.394 -197.196,-42.542C-201.594,-36.565 -205.713,-29.778 -209.631,-22.501M-141.029,-54.087L-141.029,-22.501L-188.32,-22.501C-180.643,-35.065 -172.167,-44.851 -163.291,-51.818C-155.974,-52.998 -148.557,-53.778 -141.029,-54.087M-75.088,-22.501L-122.388,-22.501L-122.388,-54.087C-114.891,-53.778 -107.444,-52.998 -100.137,-51.818C-91.24,-44.851 -82.795,-35.065 -75.088,-22.501M-53.777,-22.501C-57.695,-29.778 -61.823,-36.565 -66.231,-42.542C-52.527,-37.394 -39.413,-30.797 -27.238,-22.501L-53.777,-22.501ZM54.107,122.368L-20.171,122.368C-21.17,75.738 -29.757,31.806 -44.82,-3.908L-4.238,-3.908C-2.858,-2.509 -1.339,-1.329 0,-0.04C32.986,32.926 51.838,76.108 54.107,122.368M26.35,-26.369C-15.873,-68.551 -71.969,-91.791 -131.703,-91.791C-191.438,-91.791 -247.535,-68.551 -289.768,-26.369C-331.959,15.873 -355.25,71.989 -355.25,131.684C-355.25,191.399 -331.959,247.615 -289.768,289.748C-247.535,332 -191.438,355.28 -131.703,355.28C-71.969,355.28 -15.873,332 26.35,289.748C68.531,247.615 91.832,191.399 91.832,131.684C91.832,71.989 68.531,15.873 26.35,-26.369" style="fill-rule:nonzero;"/>
        </g>
    </g>
</svg>
