<?xml version="1.0" encoding="UTF-8" standalone="no"?>
<!DOCTYPE svg PUBLIC "-//W3C//DTD SVG 1.1//EN" "http://www.w3.org/Graphics/SVG/1.1/DTD/svg11.dtd">
<svg width="100%" height="100%" viewBox="0 0 42 42" version="1.1" xmlns="http://www.w3.org/2000/svg" xmlns:xlink="http://www.w3.org/1999/xlink" xml:space="preserve" xmlns:serif="http://www.serif.com/" style="fill-rule:evenodd;clip-rule:evenodd;stroke-linejoin:round;stroke-miterlimit:1.41421;">
    <g transform="matrix(1,0,0,1,-256.585,-2936.61)">
        <g transform="matrix(0.0804971,9.85805e-18,-9.85805e-18,0.0804971,277.192,2957.22)">
            <g transform="matrix(1,0,0,1,-256,-256)">
                <clipPath id="_clip1">
                    <rect x="0" y="0" width="512" height="512"/>
                </clipPath>
                <g clip-path="url(#_clip1)">
                    <path d="M485.621,358.582C468.215,341.848 444.93,332.984 420.41,333.918L356.465,269.977L405.113,221.328C410.418,224.676 416.566,226.477 422.996,226.477C431.977,226.477 440.426,222.977 446.777,216.625C457.719,205.684 459.742,188.062 451.484,174.961L492.23,134.211C507.305,119.141 507.305,94.613 492.23,79.539C492.23,79.539 433.508,20.816 433.461,20.77C418.551,5.859 393.68,5.875 378.789,20.77L338.031,61.523C325.047,53.371 307.664,54.934 296.375,66.223C285.426,77.172 283.402,94.77 291.668,107.887L243.023,156.531L179.18,92.691C180.172,67.836 170.801,43.738 153.168,26.102C136.332,9.27 113.953,0 90.148,0C85.328,0 80.473,0.395 75.723,1.168C63.508,3.16 58.602,18.699 67.328,27.426C67.328,27.426 93.977,54.074 94.004,54.102C97.781,57.879 97.773,64.23 94.004,67.996C94.004,67.996 69.016,92.984 68.996,93.008C65.199,96.801 58.895,96.797 55.102,93.008C55.102,93.008 28.457,66.363 28.426,66.332C19.652,57.555 4.152,62.535 2.16,74.754C-2.551,103.699 7.25,133.105 28.375,153.422C44.969,169.375 66.902,178.16 90.137,178.164C93.027,178.164 95.937,178.023 98.828,177.742L160.32,239.234C160.32,239.234 43.797,355.758 43.793,355.762C42.957,356.598 42.426,357.586 41.988,358.672C41.988,358.672 10.84,451.437 10.777,451.953C7.234,480.547 32.512,505.687 61.047,502.223C61.555,502.16 154.07,471.098 154.07,471.098C155.441,470.695 156.645,469.914 157.57,468.875L204.09,422.355C207.016,419.426 207.016,414.68 204.09,411.75C201.16,408.82 196.41,408.82 193.484,411.75L151.937,453.297L59.707,361.063L301.68,119.09L393.91,211.32L214.539,390.691C211.609,393.621 211.609,398.367 214.539,401.297C217.469,404.227 222.219,404.227 225.145,401.297L273.766,352.68L335.172,414.086C332.504,440.816 341.742,466.809 360.832,485.898C377.664,502.73 400.043,512 423.852,512C428.672,512 433.523,511.605 438.277,510.832C450.512,508.836 455.398,493.305 446.668,484.574C446.668,484.574 420.012,457.922 419.992,457.898C416.199,454.105 416.207,447.793 419.992,444.004C419.992,444.004 444.98,419.02 445.004,418.996C448.793,415.207 455.109,415.207 458.898,418.996C458.898,418.996 485.551,445.648 485.57,445.668C494.336,454.437 509.844,449.484 511.836,437.246C516.547,408.301 506.746,378.895 485.621,358.582ZM58.523,487.41C48.969,488.344 39.387,484.551 33.023,477.367C27.387,471.012 24.762,462.906 25.59,454.477L31.469,436.984L76.012,481.527L58.523,487.41ZM138.078,460.648L91.887,476.191L36.809,421.109L52.352,374.918L138.078,460.648ZM306.98,76.828C314.176,69.633 326.145,69.641 333.332,76.828L355.348,98.844C358.277,101.77 363.023,101.77 365.953,98.844C368.883,95.914 368.883,91.164 365.953,88.234L349.242,71.527C349.242,71.527 389.352,31.414 389.395,31.375C398.512,22.254 413.742,22.266 422.852,31.375L481.625,90.148C490.848,99.371 490.848,114.383 481.625,123.605L441.473,163.758L386.801,109.082C383.871,106.152 379.121,106.152 376.195,109.082C373.266,112.012 373.266,116.762 376.195,119.688L436.172,179.668C443.438,186.934 443.438,198.754 436.172,206.02C428.906,213.281 417.086,213.281 409.82,206.02C409.82,206.02 307.09,103.285 306.984,103.18C299.797,95.992 299.805,84.004 306.98,76.828ZM106.867,164.566C102.883,160.582 95.109,163.16 90.137,163.16C70.801,163.16 52.559,155.859 38.773,142.605C21.199,125.707 13.047,101.242 16.969,77.164C17.035,76.754 17.559,76.676 17.82,76.938C17.82,76.938 44.484,103.602 44.496,103.613C54.063,113.18 70.047,113.168 79.602,103.613C79.602,103.613 104.602,78.613 104.613,78.602C114.18,69.031 114.172,53.055 104.613,43.496C104.613,43.496 78,16.883 77.934,16.82C77.68,16.566 77.746,16.035 78.137,15.973C82.094,15.328 86.133,15 90.148,15C109.945,15 128.559,22.711 142.559,36.707C157.914,52.063 165.738,73.316 164.02,95.02C163.844,97.207 164.641,99.363 166.191,100.914L232.414,167.137L170.926,228.629C170.926,228.629 106.957,164.656 106.867,164.566ZM497.031,434.836C496.965,435.246 496.438,435.324 496.176,435.063C496.176,435.063 469.52,408.402 469.504,408.387C459.93,398.813 443.961,398.82 434.398,408.387C434.398,408.387 409.402,433.383 409.387,433.398C399.824,442.965 399.836,458.953 409.387,468.504C409.387,468.504 436,495.117 436.063,495.18C436.316,495.434 436.25,495.965 435.863,496.027C431.906,496.672 427.867,497 423.852,497C404.051,497 385.438,489.289 371.438,475.293C354.816,458.668 347.176,435.75 350.48,412.414C350.813,410.078 350.023,407.727 348.359,406.059L284.371,342.074L345.859,280.586C345.859,280.586 412.117,346.84 412.18,346.902C415.355,350.078 419.863,348.855 423.871,348.855C443.211,348.855 461.449,356.148 475.223,369.395C492.797,386.293 500.949,410.758 497.031,434.836Z" style="fill-rule:nonzero;stroke:black;stroke-width:1px;"/>
                </g>
            </g>
        </g>
    </g>
</svg>
