<?xml version="1.0" encoding="UTF-8" standalone="no"?>
<!DOCTYPE svg PUBLIC "-//W3C//DTD SVG 1.1//EN" "http://www.w3.org/Graphics/SVG/1.1/DTD/svg11.dtd">
<svg width="100%" height="100%" viewBox="0 0 2140 2396" version="1.1" xmlns="http://www.w3.org/2000/svg" xmlns:xlink="http://www.w3.org/1999/xlink" xml:space="preserve" xmlns:serif="http://www.serif.com/" style="fill-rule:evenodd;clip-rule:evenodd;stroke-linecap:round;stroke-miterlimit:10;">
    <g transform="matrix(1,0,0,1,-170.157,-555.937)">
        <rect id="Artboard1" x="0" y="0" width="2480.32" height="3507.87" style="fill:white;"/>
        <g id="Artboard11" serif:id="Artboard1">
            <g id="Layer-1" serif:id="Layer 1" transform="matrix(4.16667,0,0,4.16667,616,488)">
                <g transform="matrix(0.24,0,0,0.24,-172.762,-75.1351)">
                    <ellipse cx="1344" cy="1579" rx="1070" ry="1198" style="fill:white;"/>
                </g>
                <g transform="matrix(1,0,0,1,277.767,348.801)">
                    <path d="M0,180.424L-268.087,180.424L-268.087,104.407C-268.087,46.745 -221.342,0 -163.679,0L-104.408,0C-46.745,0 0,46.745 0,104.407L0,180.424Z" style="fill:rgb(254,211,174);fill-rule:nonzero;stroke:rgb(254,211,174);stroke-width:0.96px;"/>
                </g>
                <g transform="matrix(1,0,0,1,276.149,431.678)">
                    <path d="M0,-17.282C-6.234,-39.386 -26.484,-57.922 -53.94,-68.09L-210.116,-68.09C-238.87,-57.44 -259.726,-37.614 -264.85,-14.123L-214.554,50.808L-52.743,50.808L0,-17.282Z" style="fill:rgb(253,198,137);fill-rule:nonzero;stroke:rgb(253,198,137);stroke-width:0.96px;"/>
                </g>
                <g transform="matrix(1,0,0,1.00993,172.258,529.225)">
                    <path d="M0,-180.424L-59.272,-180.424C-84.094,-180.424 -106.889,-171.756 -124.807,-157.289L-124.807,0L67.739,0L67.739,-155.461C49.505,-171.024 25.852,-180.424 0,-180.424Z" style="fill:white;fill-rule:nonzero;stroke:white;stroke-width:0.96px;"/>
                </g>
                <g transform="matrix(1,0,0,1,-165.324,-98.845)">
                    <path d="M223.201,525.183C223.128,525.183 223.062,525.171 223.004,525.148C222.793,525.063 222.815,524.869 222.576,524.401C221.785,522.847 220.468,522.856 220.18,521.758C219.998,521.063 220.359,520.42 220.576,520.025C220.999,519.259 221.906,518.368 223,518.368L223.004,518.368C224.529,518.369 225.827,520.105 225.827,521.758C225.827,523.619 224.058,525.183 223.201,525.183Z" style="fill:rgb(248,188,128);fill-rule:nonzero;"/>
                </g>
                <g transform="matrix(1,0,0,1,-165.324,-98.845)">
                    <path d="M231.093,524.292C231.405,524.166 231.668,523.981 231.892,523.747C232.106,523.513 232.272,523.231 232.388,522.909C232.496,522.588 232.554,522.228 232.554,521.838C232.554,521.458 232.496,521.098 232.388,520.776C232.272,520.455 232.106,520.173 231.892,519.939C231.668,519.705 231.405,519.52 231.093,519.384C230.772,519.257 230.411,519.189 230.012,519.189C229.613,519.189 229.252,519.257 228.941,519.384C228.619,519.52 228.356,519.705 228.142,519.939C227.918,520.173 227.753,520.455 227.645,520.776C227.529,521.098 227.47,521.458 227.47,521.838C227.47,522.228 227.529,522.588 227.645,522.909C227.753,523.231 227.918,523.513 228.142,523.747C228.356,523.981 228.619,524.166 228.941,524.292C229.252,524.429 229.613,524.497 230.012,524.497C230.411,524.497 230.772,524.429 231.093,524.292ZM229.369,523.464C229.184,523.357 229.038,523.221 228.921,523.055C228.804,522.89 228.717,522.695 228.668,522.481C228.61,522.276 228.58,522.062 228.58,521.838C228.58,521.624 228.61,521.409 228.668,521.195C228.717,520.981 228.804,520.786 228.921,520.621C229.038,520.455 229.184,520.328 229.369,520.221C229.554,520.114 229.769,520.065 230.012,520.065C230.256,520.065 230.47,520.114 230.655,520.221C230.84,520.328 230.986,520.455 231.103,520.621C231.22,520.786 231.307,520.981 231.366,521.195C231.415,521.409 231.444,521.624 231.444,521.838C231.444,522.062 231.415,522.276 231.366,522.481C231.307,522.695 231.22,522.89 231.103,523.055C230.986,523.221 230.84,523.357 230.655,523.464C230.47,523.572 230.256,523.62 230.012,523.62C229.769,523.62 229.554,523.572 229.369,523.464Z" style="fill:rgb(24,22,27);fill-rule:nonzero;"/>
                </g>
                <g transform="matrix(1,0,0,1,-165.324,-98.845)">
                    <path d="M233.43,524.36L234.541,524.36L234.541,521.965C234.541,521.682 234.58,521.439 234.648,521.224C234.716,521.01 234.813,520.825 234.94,520.679C235.067,520.533 235.213,520.426 235.378,520.348C235.544,520.28 235.719,520.241 235.904,520.241C235.982,520.241 236.06,520.241 236.148,520.251C236.226,520.26 236.304,520.28 236.381,520.289L236.381,519.218C236.333,519.208 236.284,519.208 236.235,519.199C236.187,519.189 236.089,519.189 235.963,519.189C235.797,519.189 235.632,519.218 235.466,519.286C235.3,519.355 235.154,519.432 235.028,519.54C234.891,519.647 234.774,519.773 234.687,519.9C234.589,520.027 234.521,520.163 234.492,520.299L234.473,520.299L234.473,519.325L233.43,519.325L233.43,524.36Z" style="fill:rgb(24,22,27);fill-rule:nonzero;"/>
                </g>
                <g transform="matrix(1,0,0,1,-165.324,-98.845)">
                    <path d="M241.027,520.65C241.027,520.387 240.969,520.153 240.852,519.968C240.735,519.783 240.579,519.637 240.394,519.52C240.2,519.403 239.985,519.316 239.742,519.267C239.498,519.218 239.255,519.189 239.011,519.189C238.729,519.189 238.456,519.218 238.193,519.267C237.93,519.316 237.687,519.413 237.482,519.54C237.268,519.666 237.093,519.841 236.956,520.056C236.82,520.27 236.742,520.543 236.723,520.864L237.833,520.864C237.862,520.591 237.969,520.387 238.174,520.26C238.378,520.134 238.632,520.065 238.943,520.065C239.05,520.065 239.167,520.075 239.294,520.085C239.42,520.104 239.528,520.134 239.635,520.182C239.732,520.231 239.82,520.309 239.888,520.397C239.956,520.484 239.985,520.601 239.985,520.747C239.985,520.913 239.946,521.03 239.868,521.108C239.781,521.195 239.674,521.254 239.537,521.293C239.391,521.332 239.235,521.361 239.05,521.371C238.865,521.39 238.68,521.419 238.476,521.458C238.242,521.487 238.008,521.517 237.784,521.565C237.551,521.614 237.346,521.702 237.161,521.809C236.976,521.916 236.82,522.072 236.713,522.267C236.596,522.461 236.538,522.715 236.538,523.026C236.538,523.27 236.586,523.484 236.684,523.669C236.771,523.854 236.898,524.01 237.064,524.127C237.219,524.253 237.404,524.341 237.609,524.399C237.813,524.468 238.037,524.497 238.261,524.497C238.563,524.497 238.875,524.448 239.196,524.351C239.518,524.253 239.781,524.098 240.005,523.883C240.053,524.107 240.151,524.273 240.297,524.36C240.443,524.448 240.638,524.497 240.862,524.497C240.911,524.497 240.959,524.497 241.027,524.487C241.096,524.477 241.154,524.468 241.222,524.458C241.29,524.448 241.349,524.429 241.417,524.409C241.475,524.399 241.524,524.38 241.563,524.37L241.563,523.601C241.505,523.611 241.456,523.62 241.407,523.62L241.29,523.62C241.183,523.62 241.115,523.591 241.086,523.533C241.047,523.474 241.027,523.377 241.027,523.24L241.027,520.65ZM239.917,522.666C239.917,522.841 239.878,522.987 239.791,523.104C239.703,523.231 239.605,523.328 239.479,523.406C239.352,523.484 239.216,523.542 239.07,523.572C238.924,523.601 238.797,523.62 238.671,523.62C238.573,523.62 238.466,523.611 238.349,523.591C238.223,523.572 238.115,523.533 238.018,523.484C237.911,523.435 237.823,523.377 237.755,523.289C237.687,523.202 237.648,523.104 237.648,522.978C237.648,522.831 237.677,522.715 237.726,522.607C237.775,522.51 237.833,522.432 237.921,522.364C238.008,522.306 238.106,522.257 238.213,522.218C238.32,522.189 238.437,522.159 238.554,522.14C238.797,522.091 239.05,522.062 239.294,522.033C239.537,522.013 239.752,521.945 239.917,521.838L239.917,522.666Z" style="fill:rgb(24,22,27);fill-rule:nonzero;"/>
                </g>
                <g transform="matrix(1,0,0,1,-165.324,-98.845)">
                    <path d="M242.177,524.36L243.287,524.36L243.287,521.39C243.287,521.205 243.316,521.039 243.374,520.874C243.433,520.708 243.511,520.572 243.618,520.445C243.725,520.328 243.852,520.231 243.998,520.163C244.144,520.095 244.319,520.065 244.504,520.065C244.835,520.065 245.079,520.153 245.235,520.328C245.391,520.513 245.478,520.796 245.488,521.195L245.488,524.36L246.598,524.36L246.598,520.903C246.598,520.328 246.442,519.9 246.121,519.617C245.8,519.335 245.371,519.189 244.816,519.189C244.485,519.189 244.183,519.267 243.91,519.423C243.637,519.588 243.413,519.803 243.248,520.085L243.228,520.065L243.228,519.325L242.177,519.325L242.177,524.36Z" style="fill:rgb(24,22,27);fill-rule:nonzero;"/>
                </g>
                <g transform="matrix(1,0,0,1,-165.324,-98.845)">
                    <path d="M252.373,519.325L251.263,519.325L251.263,520.017L251.244,520.017C251.098,519.734 250.893,519.52 250.63,519.384C250.367,519.257 250.075,519.189 249.754,519.189C249.393,519.189 249.082,519.257 248.799,519.393C248.517,519.53 248.273,519.715 248.078,519.939C247.884,520.173 247.738,520.445 247.63,520.747C247.523,521.049 247.475,521.371 247.475,521.711C247.475,522.072 247.514,522.413 247.601,522.734C247.689,523.055 247.825,523.328 248.01,523.572C248.195,523.815 248.429,524.01 248.711,524.146C248.994,524.292 249.335,524.36 249.734,524.36C250.046,524.36 250.338,524.283 250.611,524.127C250.874,523.971 251.088,523.757 251.244,523.474L251.263,523.474L251.263,524.244C251.263,524.662 251.156,524.974 250.952,525.198C250.747,525.422 250.416,525.529 249.968,525.529C249.822,525.529 249.685,525.519 249.559,525.5C249.432,525.49 249.315,525.451 249.208,525.393C249.101,525.344 249.004,525.266 248.926,525.169C248.848,525.071 248.789,524.945 248.76,524.789L247.65,524.789C247.679,525.081 247.757,525.325 247.903,525.529C248.049,525.734 248.225,525.89 248.439,526.016C248.643,526.143 248.877,526.23 249.14,526.279C249.393,526.328 249.646,526.357 249.9,526.357C250.698,526.357 251.312,526.172 251.74,525.792C252.159,525.422 252.373,524.857 252.373,524.098L252.373,519.325ZM249.315,523.338C249.15,523.24 249.013,523.114 248.906,522.958C248.799,522.802 248.711,522.627 248.663,522.422C248.614,522.228 248.585,522.023 248.585,521.819C248.585,521.614 248.604,521.4 248.653,521.185C248.702,520.981 248.77,520.786 248.877,520.621C248.984,520.455 249.121,520.328 249.286,520.221C249.452,520.114 249.666,520.065 249.909,520.065C250.153,520.065 250.357,520.114 250.533,520.202C250.698,520.289 250.844,520.416 250.952,520.572C251.059,520.728 251.137,520.903 251.185,521.108C251.234,521.312 251.263,521.517 251.263,521.731C251.263,521.945 251.244,522.159 251.195,522.364C251.146,522.578 251.068,522.763 250.961,522.929C250.854,523.094 250.708,523.231 250.542,523.328C250.367,523.435 250.153,523.484 249.909,523.484C249.676,523.484 249.481,523.435 249.315,523.338Z" style="fill:rgb(24,22,27);fill-rule:nonzero;"/>
                </g>
                <g transform="matrix(1,0,0,1,-165.324,-98.845)">
                    <path d="M254.311,521.4C254.321,521.215 254.36,521.039 254.428,520.874C254.496,520.708 254.584,520.572 254.701,520.445C254.808,520.328 254.945,520.231 255.11,520.163C255.266,520.095 255.441,520.065 255.636,520.065C255.821,520.065 255.996,520.104 256.152,520.173C256.298,520.251 256.435,520.348 256.542,520.465C256.649,520.591 256.727,520.728 256.795,520.893C256.853,521.059 256.892,521.224 256.902,521.4L254.311,521.4ZM258.012,522.13C258.061,521.75 258.032,521.39 257.944,521.03C257.847,520.679 257.691,520.367 257.486,520.095C257.282,519.822 257.019,519.598 256.707,519.432C256.386,519.267 256.035,519.189 255.636,519.189C255.256,519.189 254.925,519.257 254.623,519.403C254.321,519.549 254.068,519.734 253.863,519.978C253.649,520.221 253.484,520.504 253.376,520.825C253.26,521.147 253.201,521.487 253.201,521.848C253.201,522.237 253.26,522.598 253.367,522.919C253.474,523.24 253.63,523.523 253.844,523.757C254.048,523.99 254.311,524.175 254.613,524.302C254.915,524.429 255.266,524.497 255.665,524.497C255.938,524.497 256.201,524.458 256.454,524.38C256.698,524.312 256.922,524.195 257.126,524.049C257.331,523.903 257.496,523.727 257.642,523.513C257.788,523.299 257.886,523.055 257.944,522.783L256.892,522.783C256.795,523.065 256.649,523.27 256.454,523.406C256.25,523.552 255.987,523.62 255.665,523.62C255.431,523.62 255.227,523.581 255.061,523.494C254.896,523.416 254.75,523.309 254.643,523.172C254.535,523.036 254.448,522.88 254.399,522.695C254.341,522.51 254.311,522.325 254.311,522.13L258.012,522.13Z" style="fill:rgb(24,22,27);fill-rule:nonzero;"/>
                </g>
                <g transform="matrix(1,0,0,1,-165.324,-98.845)">
                    <path d="M258.539,522.744C258.548,523.046 258.607,523.299 258.724,523.513C258.831,523.737 258.987,523.912 259.191,524.059C259.386,524.205 259.62,524.322 259.892,524.39C260.155,524.458 260.448,524.497 260.769,524.497C261.032,524.497 261.295,524.468 261.558,524.409C261.821,524.351 262.064,524.253 262.288,524.127C262.503,524 262.678,523.825 262.814,523.62C262.951,523.416 263.019,523.163 263.019,522.861C263.019,522.617 262.97,522.403 262.882,522.237C262.785,522.072 262.658,521.926 262.512,521.819C262.356,521.711 262.181,521.624 261.986,521.556C261.792,521.487 261.597,521.439 261.392,521.39C261.188,521.341 260.983,521.302 260.788,521.263C260.594,521.224 260.418,521.176 260.272,521.117C260.116,521.069 259.99,521 259.902,520.913C259.805,520.825 259.756,520.718 259.756,520.582C259.756,520.475 259.785,520.377 259.853,520.309C259.922,520.241 260,520.192 260.097,520.153C260.185,520.124 260.292,520.095 260.399,520.085C260.506,520.075 260.594,520.065 260.672,520.065C260.915,520.065 261.139,520.114 261.334,520.202C261.519,520.289 261.645,520.475 261.694,520.737L262.853,520.737C262.824,520.455 262.746,520.221 262.619,520.017C262.493,519.822 262.327,519.666 262.142,519.54C261.947,519.413 261.733,519.325 261.499,519.267C261.256,519.218 261.012,519.189 260.749,519.189C260.525,519.189 260.282,519.208 260.039,519.257C259.785,519.306 259.561,519.384 259.357,519.491C259.152,519.608 258.977,519.754 258.85,519.939C258.714,520.124 258.646,520.358 258.646,520.63C258.646,520.884 258.695,521.098 258.782,521.263C258.87,521.439 258.996,521.585 259.152,521.692C259.298,521.799 259.474,521.887 259.668,521.955C259.853,522.023 260.058,522.072 260.263,522.12C260.467,522.169 260.662,522.208 260.857,522.247C261.051,522.286 261.227,522.335 261.383,522.383C261.529,522.442 261.655,522.52 261.753,522.607C261.85,522.695 261.899,522.812 261.908,522.958C261.918,523.104 261.879,523.211 261.811,523.299C261.733,523.387 261.636,523.455 261.519,523.503C261.402,523.552 261.275,523.581 261.149,523.591C261.012,523.611 260.896,523.62 260.788,523.62C260.487,523.62 260.233,523.552 260.019,523.426C259.805,523.299 259.678,523.065 259.649,522.744L258.539,522.744Z" style="fill:rgb(24,22,27);fill-rule:nonzero;"/>
                </g>
                <g transform="matrix(1,0,0,1,-165.324,-98.845)">
                    <path d="M263.846,526.221L264.957,526.221L264.957,523.708L264.976,523.708C265.064,523.844 265.171,523.961 265.298,524.059C265.424,524.166 265.561,524.244 265.707,524.312C265.853,524.38 266.009,524.419 266.174,524.448C266.34,524.477 266.496,524.497 266.661,524.497C267.031,524.497 267.353,524.419 267.625,524.273C267.898,524.127 268.122,523.932 268.307,523.688C268.482,523.445 268.619,523.172 268.706,522.851C268.794,522.53 268.833,522.208 268.833,521.867C268.833,521.497 268.784,521.147 268.687,520.825C268.59,520.504 268.443,520.212 268.249,519.968C268.054,519.725 267.81,519.54 267.518,519.393C267.216,519.257 266.875,519.189 266.476,519.189C266.155,519.189 265.853,519.247 265.57,519.374C265.288,519.501 265.074,519.715 264.918,520.007L264.898,520.007L264.898,519.325L263.846,519.325L263.846,526.221ZM267.655,522.491C267.606,522.705 267.518,522.89 267.411,523.055C267.294,523.221 267.148,523.357 266.973,523.464C266.797,523.572 266.583,523.62 266.33,523.62C266.106,523.62 265.901,523.572 265.736,523.484C265.561,523.396 265.415,523.27 265.288,523.114C265.161,522.958 265.074,522.773 265.015,522.549C264.947,522.335 264.918,522.101 264.918,521.848C264.918,521.312 265.035,520.874 265.278,520.552C265.512,520.231 265.863,520.065 266.33,520.065C266.554,520.065 266.759,520.114 266.934,520.212C267.109,520.319 267.255,520.445 267.372,520.611C267.489,520.776 267.577,520.971 267.635,521.185C267.693,521.4 267.723,521.624 267.723,521.848C267.723,522.072 267.703,522.286 267.655,522.491Z" style="fill:rgb(24,22,27);fill-rule:nonzero;"/>
                </g>
                <g transform="matrix(1,0,0,1,-165.324,-98.845)">
                    <path d="M273.936,520.65C273.936,520.387 273.878,520.153 273.761,519.968C273.644,519.783 273.488,519.637 273.303,519.52C273.108,519.403 272.894,519.316 272.651,519.267C272.407,519.218 272.164,519.189 271.92,519.189C271.638,519.189 271.365,519.218 271.102,519.267C270.839,519.316 270.596,519.413 270.391,519.54C270.177,519.666 270.002,519.841 269.865,520.056C269.729,520.27 269.651,520.543 269.631,520.864L270.742,520.864C270.771,520.591 270.878,520.387 271.083,520.26C271.287,520.134 271.54,520.065 271.852,520.065C271.959,520.065 272.076,520.075 272.203,520.085C272.329,520.104 272.436,520.134 272.544,520.182C272.641,520.231 272.729,520.309 272.797,520.397C272.865,520.484 272.894,520.601 272.894,520.747C272.894,520.913 272.855,521.03 272.777,521.108C272.69,521.195 272.582,521.254 272.446,521.293C272.3,521.332 272.144,521.361 271.959,521.371C271.774,521.39 271.589,521.419 271.385,521.458C271.151,521.487 270.917,521.517 270.693,521.565C270.459,521.614 270.255,521.702 270.07,521.809C269.885,521.916 269.729,522.072 269.622,522.267C269.505,522.461 269.446,522.715 269.446,523.026C269.446,523.27 269.495,523.484 269.593,523.669C269.68,523.854 269.807,524.01 269.972,524.127C270.128,524.253 270.313,524.341 270.518,524.399C270.722,524.468 270.946,524.497 271.17,524.497C271.472,524.497 271.784,524.448 272.105,524.351C272.427,524.253 272.69,524.098 272.914,523.883C272.962,524.107 273.06,524.273 273.206,524.36C273.352,524.448 273.547,524.497 273.771,524.497C273.819,524.497 273.868,524.497 273.936,524.487C274.004,524.477 274.063,524.468 274.131,524.458C274.199,524.448 274.258,524.429 274.326,524.409C274.384,524.399 274.433,524.38 274.472,524.37L274.472,523.601C274.413,523.611 274.365,523.62 274.316,523.62L274.199,523.62C274.092,523.62 274.024,523.591 273.995,523.533C273.956,523.474 273.936,523.377 273.936,523.24L273.936,520.65ZM272.826,522.666C272.826,522.841 272.787,522.987 272.699,523.104C272.612,523.231 272.514,523.328 272.388,523.406C272.261,523.484 272.125,523.542 271.979,523.572C271.833,523.601 271.706,523.62 271.579,523.62C271.482,523.62 271.375,523.611 271.258,523.591C271.131,523.572 271.024,523.533 270.927,523.484C270.82,523.435 270.732,523.377 270.664,523.289C270.596,523.202 270.557,523.104 270.557,522.978C270.557,522.831 270.586,522.715 270.635,522.607C270.683,522.51 270.742,522.432 270.829,522.364C270.917,522.306 271.014,522.257 271.122,522.218C271.229,522.189 271.346,522.159 271.462,522.14C271.706,522.091 271.959,522.062 272.203,522.033C272.446,522.013 272.66,521.945 272.826,521.838L272.826,522.666Z" style="fill:rgb(24,22,27);fill-rule:nonzero;"/>
                </g>
                <g transform="matrix(1,0,0,1,-165.324,-98.845)">
                    <path d="M279.595,521.01C279.565,520.699 279.488,520.426 279.361,520.202C279.234,519.978 279.069,519.783 278.864,519.637C278.66,519.491 278.426,519.374 278.163,519.296C277.9,519.228 277.618,519.189 277.325,519.189C276.907,519.189 276.546,519.257 276.244,519.393C275.933,519.54 275.67,519.725 275.465,519.968C275.261,520.212 275.105,520.504 274.998,520.835C274.891,521.166 274.842,521.517 274.842,521.896C274.842,522.267 274.9,522.607 275.007,522.929C275.115,523.25 275.27,523.523 275.475,523.747C275.679,523.981 275.942,524.166 276.244,524.292C276.546,524.429 276.887,524.497 277.286,524.497C277.939,524.497 278.455,524.322 278.854,523.971C279.244,523.63 279.488,523.124 279.595,522.471L278.484,522.471C278.436,522.831 278.299,523.114 278.095,523.318C277.881,523.523 277.608,523.62 277.286,523.62C277.043,523.62 276.838,523.572 276.673,523.464C276.507,523.367 276.371,523.24 276.264,523.075C276.157,522.909 276.079,522.724 276.03,522.52C275.981,522.315 275.952,522.101 275.952,521.896C275.952,521.517 276.001,521.205 276.089,520.961C276.176,520.728 276.293,520.543 276.429,520.406C276.566,520.28 276.712,520.182 276.877,520.134C277.043,520.085 277.189,520.065 277.335,520.065C277.647,520.065 277.91,520.143 278.114,520.299C278.319,520.465 278.436,520.699 278.484,521.01L279.595,521.01Z" style="fill:rgb(24,22,27);fill-rule:nonzero;"/>
                </g>
                <g transform="matrix(1,0,0,1,-165.324,-98.845)">
                    <path d="M281.319,521.4C281.329,521.215 281.368,521.039 281.436,520.874C281.504,520.708 281.592,520.572 281.708,520.445C281.816,520.328 281.952,520.231 282.117,520.163C282.273,520.095 282.449,520.065 282.643,520.065C282.828,520.065 283.004,520.104 283.16,520.173C283.306,520.251 283.442,520.348 283.549,520.465C283.656,520.591 283.734,520.728 283.802,520.893C283.861,521.059 283.9,521.224 283.91,521.4L281.319,521.4ZM285.02,522.13C285.068,521.75 285.039,521.39 284.952,521.03C284.854,520.679 284.698,520.367 284.494,520.095C284.289,519.822 284.026,519.598 283.715,519.432C283.393,519.267 283.043,519.189 282.643,519.189C282.264,519.189 281.932,519.257 281.631,519.403C281.329,519.549 281.075,519.734 280.871,519.978C280.657,520.221 280.491,520.504 280.384,520.825C280.267,521.147 280.209,521.487 280.209,521.848C280.209,522.237 280.267,522.598 280.374,522.919C280.481,523.24 280.637,523.523 280.851,523.757C281.056,523.99 281.319,524.175 281.621,524.302C281.923,524.429 282.273,524.497 282.673,524.497C282.945,524.497 283.208,524.458 283.462,524.38C283.705,524.312 283.929,524.195 284.134,524.049C284.338,523.903 284.504,523.727 284.65,523.513C284.796,523.299 284.893,523.055 284.952,522.783L283.9,522.783C283.802,523.065 283.656,523.27 283.462,523.406C283.257,523.552 282.994,523.62 282.673,523.62C282.439,523.62 282.234,523.581 282.069,523.494C281.903,523.416 281.757,523.309 281.65,523.172C281.543,523.036 281.455,522.88 281.407,522.695C281.348,522.51 281.319,522.325 281.319,522.13L285.02,522.13Z" style="fill:rgb(24,22,27);fill-rule:nonzero;"/>
                </g>
                <g transform="matrix(1,0,0,1,-165.324,-98.845)">
                    <path d="M286.5,519.16L285.818,520.075L286.364,520.455L287.026,519.501L287.717,520.455L288.234,520.075L287.552,519.16L288.662,518.79L288.428,518.157L287.367,518.575L287.367,517.407L286.705,517.407L286.705,518.575L285.633,518.157L285.419,518.79L286.5,519.16Z" style="fill:rgb(24,22,27);fill-rule:nonzero;"/>
                </g>
                <g transform="matrix(1,0,0,1,-165.324,-98.845)">
                    <path d="M231.093,524.292C231.405,524.166 231.668,523.981 231.892,523.747C232.106,523.513 232.272,523.231 232.388,522.909C232.496,522.588 232.554,522.228 232.554,521.838C232.554,521.458 232.496,521.098 232.388,520.776C232.272,520.455 232.106,520.173 231.892,519.939C231.668,519.705 231.405,519.52 231.093,519.384C230.772,519.257 230.411,519.189 230.012,519.189C229.613,519.189 229.252,519.257 228.941,519.384C228.619,519.52 228.356,519.705 228.142,519.939C227.918,520.173 227.753,520.455 227.645,520.776C227.529,521.098 227.47,521.458 227.47,521.838C227.47,522.228 227.529,522.588 227.645,522.909C227.753,523.231 227.918,523.513 228.142,523.747C228.356,523.981 228.619,524.166 228.941,524.292C229.252,524.429 229.613,524.497 230.012,524.497C230.411,524.497 230.772,524.429 231.093,524.292ZM229.369,523.464C229.184,523.357 229.038,523.221 228.921,523.055C228.804,522.89 228.717,522.695 228.668,522.481C228.61,522.276 228.58,522.062 228.58,521.838C228.58,521.624 228.61,521.409 228.668,521.195C228.717,520.981 228.804,520.786 228.921,520.621C229.038,520.455 229.184,520.328 229.369,520.221C229.554,520.114 229.769,520.065 230.012,520.065C230.256,520.065 230.47,520.114 230.655,520.221C230.84,520.328 230.986,520.455 231.103,520.621C231.22,520.786 231.307,520.981 231.366,521.195C231.415,521.409 231.444,521.624 231.444,521.838C231.444,522.062 231.415,522.276 231.366,522.481C231.307,522.695 231.22,522.89 231.103,523.055C230.986,523.221 230.84,523.357 230.655,523.464C230.47,523.572 230.256,523.62 230.012,523.62C229.769,523.62 229.554,523.572 229.369,523.464ZM233.431,524.36L234.541,524.36L234.541,521.965C234.541,521.682 234.58,521.439 234.648,521.224C234.716,521.01 234.814,520.825 234.94,520.679C235.067,520.533 235.213,520.426 235.379,520.348C235.544,520.28 235.72,520.241 235.905,520.241C235.983,520.241 236.06,520.241 236.148,520.251C236.226,520.26 236.304,520.28 236.382,520.289L236.382,519.218C236.333,519.208 236.284,519.208 236.236,519.199C236.187,519.189 236.09,519.189 235.963,519.189C235.797,519.189 235.632,519.218 235.466,519.286C235.301,519.355 235.155,519.432 235.028,519.54C234.892,519.647 234.775,519.773 234.687,519.9C234.59,520.027 234.522,520.163 234.492,520.299L234.473,520.299L234.473,519.325L233.431,519.325L233.431,524.36ZM241.028,520.65C241.028,520.387 240.97,520.153 240.853,519.968C240.736,519.783 240.58,519.637 240.395,519.52C240.2,519.403 239.986,519.316 239.742,519.267C239.499,519.218 239.255,519.189 239.012,519.189C238.729,519.189 238.457,519.218 238.194,519.267C237.931,519.316 237.687,519.413 237.483,519.54C237.269,519.666 237.093,519.841 236.957,520.056C236.821,520.27 236.743,520.543 236.723,520.864L237.833,520.864C237.863,520.591 237.97,520.387 238.174,520.26C238.379,520.134 238.632,520.065 238.944,520.065C239.051,520.065 239.168,520.075 239.294,520.085C239.421,520.104 239.528,520.134 239.635,520.182C239.733,520.231 239.82,520.309 239.888,520.397C239.957,520.484 239.986,520.601 239.986,520.747C239.986,520.913 239.947,521.03 239.869,521.108C239.781,521.195 239.674,521.254 239.538,521.293C239.392,521.332 239.236,521.361 239.051,521.371C238.866,521.39 238.681,521.419 238.476,521.458C238.243,521.487 238.009,521.517 237.785,521.565C237.551,521.614 237.347,521.702 237.161,521.809C236.976,521.916 236.821,522.072 236.713,522.267C236.597,522.461 236.538,522.715 236.538,523.026C236.538,523.27 236.587,523.484 236.684,523.669C236.772,523.854 236.899,524.01 237.064,524.127C237.22,524.253 237.405,524.341 237.609,524.399C237.814,524.468 238.038,524.497 238.262,524.497C238.564,524.497 238.876,524.448 239.197,524.351C239.518,524.253 239.781,524.098 240.005,523.883C240.054,524.107 240.151,524.273 240.298,524.36C240.444,524.448 240.638,524.497 240.862,524.497C240.911,524.497 240.96,524.497 241.028,524.487C241.096,524.477 241.155,524.468 241.223,524.458C241.291,524.448 241.349,524.429 241.418,524.409C241.476,524.399 241.525,524.38 241.564,524.37L241.564,523.601C241.505,523.611 241.456,523.62 241.408,523.62L241.291,523.62C241.184,523.62 241.116,523.591 241.086,523.533C241.047,523.474 241.028,523.377 241.028,523.24L241.028,520.65ZM239.918,522.666C239.918,522.841 239.879,522.987 239.791,523.104C239.703,523.231 239.606,523.328 239.479,523.406C239.353,523.484 239.216,523.542 239.07,523.572C238.924,523.601 238.798,523.62 238.671,523.62C238.574,523.62 238.467,523.611 238.35,523.591C238.223,523.572 238.116,523.533 238.019,523.484C237.911,523.435 237.824,523.377 237.756,523.289C237.687,523.202 237.648,523.104 237.648,522.978C237.648,522.831 237.678,522.715 237.726,522.607C237.775,522.51 237.833,522.432 237.921,522.364C238.009,522.306 238.106,522.257 238.213,522.218C238.32,522.189 238.437,522.159 238.554,522.14C238.798,522.091 239.051,522.062 239.294,522.033C239.538,522.013 239.752,521.945 239.918,521.838L239.918,522.666ZM242.177,524.36L243.287,524.36L243.287,521.39C243.287,521.205 243.316,521.039 243.375,520.874C243.433,520.708 243.511,520.572 243.618,520.445C243.725,520.328 243.852,520.231 243.998,520.163C244.144,520.095 244.319,520.065 244.505,520.065C244.836,520.065 245.079,520.153 245.235,520.328C245.391,520.513 245.478,520.796 245.488,521.195L245.488,524.36L246.598,524.36L246.598,520.903C246.598,520.328 246.443,519.9 246.121,519.617C245.8,519.335 245.371,519.189 244.816,519.189C244.485,519.189 244.183,519.267 243.91,519.423C243.638,519.588 243.414,519.803 243.248,520.085L243.229,520.065L243.229,519.325L242.177,519.325L242.177,524.36ZM252.373,519.325L251.263,519.325L251.263,520.017L251.243,520.017C251.097,519.734 250.893,519.52 250.63,519.384C250.367,519.257 250.075,519.189 249.753,519.189C249.393,519.189 249.081,519.257 248.799,519.393C248.516,519.53 248.273,519.715 248.078,519.939C247.883,520.173 247.737,520.445 247.63,520.747C247.523,521.049 247.474,521.371 247.474,521.711C247.474,522.072 247.513,522.413 247.601,522.734C247.689,523.055 247.825,523.328 248.01,523.572C248.195,523.815 248.429,524.01 248.711,524.146C248.994,524.292 249.335,524.36 249.734,524.36C250.046,524.36 250.338,524.283 250.61,524.127C250.873,523.971 251.088,523.757 251.243,523.474L251.263,523.474L251.263,524.244C251.263,524.662 251.156,524.974 250.951,525.198C250.747,525.422 250.416,525.529 249.968,525.529C249.822,525.529 249.685,525.519 249.559,525.5C249.432,525.49 249.315,525.451 249.208,525.393C249.101,525.344 249.003,525.266 248.926,525.169C248.848,525.071 248.789,524.945 248.76,524.789L247.65,524.789C247.679,525.081 247.757,525.325 247.903,525.529C248.049,525.734 248.224,525.89 248.439,526.016C248.643,526.143 248.877,526.23 249.14,526.279C249.393,526.328 249.646,526.357 249.899,526.357C250.698,526.357 251.312,526.172 251.74,525.792C252.159,525.422 252.373,524.857 252.373,524.098L252.373,519.325ZM249.315,523.338C249.15,523.24 249.013,523.114 248.906,522.958C248.799,522.802 248.711,522.627 248.663,522.422C248.614,522.228 248.585,522.023 248.585,521.819C248.585,521.614 248.604,521.4 248.653,521.185C248.702,520.981 248.77,520.786 248.877,520.621C248.984,520.455 249.12,520.328 249.286,520.221C249.451,520.114 249.666,520.065 249.909,520.065C250.153,520.065 250.357,520.114 250.533,520.202C250.698,520.289 250.844,520.416 250.951,520.572C251.058,520.728 251.136,520.903 251.185,521.108C251.234,521.312 251.263,521.517 251.263,521.731C251.263,521.945 251.243,522.159 251.195,522.364C251.146,522.578 251.068,522.763 250.961,522.929C250.854,523.094 250.708,523.231 250.542,523.328C250.367,523.435 250.153,523.484 249.909,523.484C249.675,523.484 249.481,523.435 249.315,523.338ZM254.312,521.4C254.321,521.215 254.36,521.039 254.429,520.874C254.497,520.708 254.584,520.572 254.701,520.445C254.808,520.328 254.945,520.231 255.11,520.163C255.266,520.095 255.441,520.065 255.636,520.065C255.821,520.065 255.997,520.104 256.152,520.173C256.298,520.251 256.435,520.348 256.542,520.465C256.649,520.591 256.727,520.728 256.795,520.893C256.854,521.059 256.893,521.224 256.902,521.4L254.312,521.4ZM258.013,522.13C258.061,521.75 258.032,521.39 257.944,521.03C257.847,520.679 257.691,520.367 257.487,520.095C257.282,519.822 257.019,519.598 256.708,519.432C256.386,519.267 256.036,519.189 255.636,519.189C255.256,519.189 254.925,519.257 254.623,519.403C254.321,519.549 254.068,519.734 253.864,519.978C253.649,520.221 253.484,520.504 253.377,520.825C253.26,521.147 253.201,521.487 253.201,521.848C253.201,522.237 253.26,522.598 253.367,522.919C253.474,523.24 253.63,523.523 253.844,523.757C254.049,523.99 254.312,524.175 254.614,524.302C254.915,524.429 255.266,524.497 255.665,524.497C255.938,524.497 256.201,524.458 256.454,524.38C256.698,524.312 256.922,524.195 257.126,524.049C257.331,523.903 257.496,523.727 257.642,523.513C257.789,523.299 257.886,523.055 257.944,522.783L256.893,522.783C256.795,523.065 256.649,523.27 256.454,523.406C256.25,523.552 255.987,523.62 255.665,523.62C255.432,523.62 255.227,523.581 255.062,523.494C254.896,523.416 254.75,523.309 254.643,523.172C254.536,523.036 254.448,522.88 254.399,522.695C254.341,522.51 254.312,522.325 254.312,522.13L258.013,522.13ZM258.539,522.744C258.549,523.046 258.607,523.299 258.724,523.513C258.831,523.737 258.987,523.912 259.192,524.059C259.386,524.205 259.62,524.322 259.893,524.39C260.156,524.458 260.448,524.497 260.769,524.497C261.032,524.497 261.295,524.468 261.558,524.409C261.821,524.351 262.065,524.253 262.289,524.127C262.503,524 262.678,523.825 262.815,523.62C262.951,523.416 263.019,523.163 263.019,522.861C263.019,522.617 262.971,522.403 262.883,522.237C262.785,522.072 262.659,521.926 262.513,521.819C262.357,521.711 262.182,521.624 261.987,521.556C261.792,521.487 261.597,521.439 261.393,521.39C261.188,521.341 260.984,521.302 260.789,521.263C260.594,521.224 260.419,521.176 260.273,521.117C260.117,521.069 259.99,521 259.903,520.913C259.805,520.825 259.757,520.718 259.757,520.582C259.757,520.475 259.786,520.377 259.854,520.309C259.922,520.241 260,520.192 260.097,520.153C260.185,520.124 260.292,520.095 260.399,520.085C260.506,520.075 260.594,520.065 260.672,520.065C260.916,520.065 261.14,520.114 261.334,520.202C261.519,520.289 261.646,520.475 261.695,520.737L262.854,520.737C262.824,520.455 262.747,520.221 262.62,520.017C262.493,519.822 262.328,519.666 262.143,519.54C261.948,519.413 261.734,519.325 261.5,519.267C261.256,519.218 261.013,519.189 260.75,519.189C260.526,519.189 260.282,519.208 260.039,519.257C259.786,519.306 259.562,519.384 259.357,519.491C259.153,519.608 258.977,519.754 258.851,519.939C258.714,520.124 258.646,520.358 258.646,520.63C258.646,520.884 258.695,521.098 258.783,521.263C258.87,521.439 258.997,521.585 259.153,521.692C259.299,521.799 259.474,521.887 259.669,521.955C259.854,522.023 260.058,522.072 260.263,522.12C260.468,522.169 260.662,522.208 260.857,522.247C261.052,522.286 261.227,522.335 261.383,522.383C261.529,522.442 261.656,522.52 261.753,522.607C261.851,522.695 261.899,522.812 261.909,522.958C261.919,523.104 261.88,523.211 261.812,523.299C261.734,523.387 261.636,523.455 261.519,523.503C261.403,523.552 261.276,523.581 261.149,523.591C261.013,523.611 260.896,523.62 260.789,523.62C260.487,523.62 260.234,523.552 260.02,523.426C259.805,523.299 259.679,523.065 259.649,522.744L258.539,522.744ZM263.846,526.221L264.956,526.221L264.956,523.708L264.976,523.708C265.063,523.844 265.171,523.961 265.297,524.059C265.424,524.166 265.56,524.244 265.706,524.312C265.852,524.38 266.008,524.419 266.174,524.448C266.339,524.477 266.495,524.497 266.661,524.497C267.031,524.497 267.352,524.419 267.625,524.273C267.898,524.127 268.122,523.932 268.307,523.688C268.482,523.445 268.618,523.172 268.706,522.851C268.794,522.53 268.833,522.208 268.833,521.867C268.833,521.497 268.784,521.147 268.686,520.825C268.589,520.504 268.443,520.212 268.248,519.968C268.053,519.725 267.81,519.54 267.518,519.393C267.216,519.257 266.875,519.189 266.476,519.189C266.154,519.189 265.852,519.247 265.57,519.374C265.287,519.501 265.073,519.715 264.917,520.007L264.898,520.007L264.898,519.325L263.846,519.325L263.846,526.221ZM267.654,522.491C267.605,522.705 267.518,522.89 267.411,523.055C267.294,523.221 267.148,523.357 266.972,523.464C266.797,523.572 266.583,523.62 266.33,523.62C266.106,523.62 265.901,523.572 265.736,523.484C265.56,523.396 265.414,523.27 265.287,523.114C265.161,522.958 265.073,522.773 265.015,522.549C264.947,522.335 264.917,522.101 264.917,521.848C264.917,521.312 265.034,520.874 265.278,520.552C265.511,520.231 265.862,520.065 266.33,520.065C266.554,520.065 266.758,520.114 266.933,520.212C267.109,520.319 267.255,520.445 267.372,520.611C267.489,520.776 267.576,520.971 267.635,521.185C267.693,521.4 267.722,521.624 267.722,521.848C267.722,522.072 267.703,522.286 267.654,522.491ZM273.936,520.65C273.936,520.387 273.878,520.153 273.761,519.968C273.644,519.783 273.488,519.637 273.303,519.52C273.108,519.403 272.894,519.316 272.65,519.267C272.407,519.218 272.163,519.189 271.92,519.189C271.638,519.189 271.365,519.218 271.102,519.267C270.839,519.316 270.595,519.413 270.391,519.54C270.177,519.666 270.001,519.841 269.865,520.056C269.729,520.27 269.651,520.543 269.631,520.864L270.741,520.864C270.771,520.591 270.878,520.387 271.082,520.26C271.287,520.134 271.54,520.065 271.852,520.065C271.959,520.065 272.076,520.075 272.202,520.085C272.329,520.104 272.436,520.134 272.543,520.182C272.641,520.231 272.728,520.309 272.796,520.397C272.865,520.484 272.894,520.601 272.894,520.747C272.894,520.913 272.855,521.03 272.777,521.108C272.689,521.195 272.582,521.254 272.446,521.293C272.3,521.332 272.144,521.361 271.959,521.371C271.774,521.39 271.589,521.419 271.384,521.458C271.151,521.487 270.917,521.517 270.693,521.565C270.459,521.614 270.255,521.702 270.069,521.809C269.884,521.916 269.729,522.072 269.621,522.267C269.505,522.461 269.446,522.715 269.446,523.026C269.446,523.27 269.495,523.484 269.592,523.669C269.68,523.854 269.807,524.01 269.972,524.127C270.128,524.253 270.313,524.341 270.517,524.399C270.722,524.468 270.946,524.497 271.17,524.497C271.472,524.497 271.784,524.448 272.105,524.351C272.426,524.253 272.689,524.098 272.913,523.883C272.962,524.107 273.059,524.273 273.206,524.36C273.352,524.448 273.546,524.497 273.77,524.497C273.819,524.497 273.868,524.497 273.936,524.487C274.004,524.477 274.063,524.468 274.131,524.458C274.199,524.448 274.257,524.429 274.326,524.409C274.384,524.399 274.433,524.38 274.472,524.37L274.472,523.601C274.413,523.611 274.364,523.62 274.316,523.62L274.199,523.62C274.092,523.62 274.024,523.591 273.994,523.533C273.955,523.474 273.936,523.377 273.936,523.24L273.936,520.65ZM272.826,522.666C272.826,522.841 272.787,522.987 272.699,523.104C272.611,523.231 272.514,523.328 272.387,523.406C272.261,523.484 272.124,523.542 271.978,523.572C271.832,523.601 271.706,523.62 271.579,523.62C271.482,523.62 271.375,523.611 271.258,523.591C271.131,523.572 271.024,523.533 270.927,523.484C270.819,523.435 270.732,523.377 270.664,523.289C270.595,523.202 270.556,523.104 270.556,522.978C270.556,522.831 270.586,522.715 270.634,522.607C270.683,522.51 270.741,522.432 270.829,522.364C270.917,522.306 271.014,522.257 271.121,522.218C271.228,522.189 271.345,522.159 271.462,522.14C271.706,522.091 271.959,522.062 272.202,522.033C272.446,522.013 272.66,521.945 272.826,521.838L272.826,522.666ZM279.594,521.01C279.565,520.699 279.487,520.426 279.36,520.202C279.234,519.978 279.068,519.783 278.864,519.637C278.659,519.491 278.425,519.374 278.162,519.296C277.9,519.228 277.617,519.189 277.325,519.189C276.906,519.189 276.546,519.257 276.244,519.393C275.932,519.54 275.669,519.725 275.465,519.968C275.26,520.212 275.104,520.504 274.997,520.835C274.89,521.166 274.841,521.517 274.841,521.896C274.841,522.267 274.9,522.607 275.007,522.929C275.114,523.25 275.27,523.523 275.474,523.747C275.679,523.981 275.942,524.166 276.244,524.292C276.546,524.429 276.887,524.497 277.286,524.497C277.938,524.497 278.455,524.322 278.854,523.971C279.244,523.63 279.487,523.124 279.594,522.471L278.484,522.471C278.435,522.831 278.299,523.114 278.094,523.318C277.88,523.523 277.607,523.62 277.286,523.62C277.042,523.62 276.838,523.572 276.672,523.464C276.507,523.367 276.37,523.24 276.263,523.075C276.156,522.909 276.078,522.724 276.03,522.52C275.981,522.315 275.952,522.101 275.952,521.896C275.952,521.517 276,521.205 276.088,520.961C276.176,520.728 276.293,520.543 276.429,520.406C276.565,520.28 276.711,520.182 276.877,520.134C277.042,520.085 277.189,520.065 277.335,520.065C277.646,520.065 277.909,520.143 278.114,520.299C278.318,520.465 278.435,520.699 278.484,521.01L279.594,521.01ZM281.319,521.4C281.328,521.215 281.367,521.039 281.436,520.874C281.504,520.708 281.591,520.572 281.708,520.445C281.815,520.328 281.952,520.231 282.117,520.163C282.273,520.095 282.448,520.065 282.643,520.065C282.828,520.065 283.004,520.104 283.159,520.173C283.305,520.251 283.442,520.348 283.549,520.465C283.656,520.591 283.734,520.728 283.802,520.893C283.861,521.059 283.9,521.224 283.909,521.4L281.319,521.4ZM285.02,522.13C285.068,521.75 285.039,521.39 284.951,521.03C284.854,520.679 284.698,520.367 284.494,520.095C284.289,519.822 284.026,519.598 283.715,519.432C283.393,519.267 283.043,519.189 282.643,519.189C282.263,519.189 281.932,519.257 281.63,519.403C281.328,519.549 281.075,519.734 280.871,519.978C280.656,520.221 280.491,520.504 280.384,520.825C280.267,521.147 280.208,521.487 280.208,521.848C280.208,522.237 280.267,522.598 280.374,522.919C280.481,523.24 280.637,523.523 280.851,523.757C281.056,523.99 281.319,524.175 281.621,524.302C281.922,524.429 282.273,524.497 282.672,524.497C282.945,524.497 283.208,524.458 283.461,524.38C283.705,524.312 283.929,524.195 284.133,524.049C284.338,523.903 284.503,523.727 284.649,523.513C284.796,523.299 284.893,523.055 284.951,522.783L283.9,522.783C283.802,523.065 283.656,523.27 283.461,523.406C283.257,523.552 282.994,523.62 282.672,523.62C282.439,523.62 282.234,523.581 282.069,523.494C281.903,523.416 281.757,523.309 281.65,523.172C281.543,523.036 281.455,522.88 281.406,522.695C281.348,522.51 281.319,522.325 281.319,522.13L285.02,522.13ZM286.5,519.16L285.818,520.075L286.363,520.455L287.026,519.501L287.717,520.455L288.233,520.075L287.551,519.16L288.662,518.79L288.428,518.157L287.366,518.575L287.366,517.407L286.704,517.407L286.704,518.575L285.633,518.157L285.419,518.79L286.5,519.16Z" style="fill:none;stroke:rgb(24,22,27);stroke-width:0.25px;stroke-linecap:butt;stroke-miterlimit:2;"/>
                </g>
                <g transform="matrix(1,0,0,1,141.26,179.949)">
                    <path d="M0,-120.339C32.44,-119.912 60.992,-120.221 76.078,-103.729C79.03,-100.501 81.16,-96.588 81.16,-96.587C87.635,-85.349 87.855,-73.983 87.43,-67.662C87.584,-52.192 87.74,-36.722 87.894,-21.252C88,-10.628 79.506,-1.913 68.883,-1.746L-65.31,0.359C-76.019,0.527 -84.819,-8.05 -84.926,-18.76L-85.388,-64.951C-85.429,-66.308 -85.442,-68.31 -85.285,-70.719C-85.285,-70.72 -84.133,-88.373 -74.071,-103.014C-63.731,-118.059 -40.016,-120.866 0,-120.339" style="fill:rgb(39,40,37);fill-rule:nonzero;"/>
                </g>
                <g transform="matrix(1,0,0,1,141.26,179.949)">
                    <path d="M0,-120.339C32.44,-119.912 60.992,-120.221 76.078,-103.729C79.03,-100.501 81.16,-96.588 81.16,-96.587C87.635,-85.349 87.855,-73.983 87.43,-67.662C87.584,-52.192 87.74,-36.722 87.894,-21.252C88,-10.628 79.506,-1.913 68.883,-1.746L-65.31,0.359C-76.019,0.527 -84.819,-8.05 -84.926,-18.76L-85.388,-64.951C-85.429,-66.308 -85.442,-68.31 -85.285,-70.719C-85.285,-70.72 -84.133,-88.373 -74.071,-103.014C-63.731,-118.059 -40.016,-120.866 0,-120.339Z" style="fill:none;fill-rule:nonzero;stroke:rgb(29,30,27);stroke-width:0.96px;"/>
                </g>
                <g transform="matrix(1,0,0,1,143.506,112.946)">
                    <path d="M0,181C-44.183,181 -80,145.183 -80,101L-80,19.314C-80,8.647 -71.353,0 -60.685,0L60.685,0C71.353,0 80,8.647 80,19.314L80,101C80,145.183 44.183,181 0,181" style="fill:rgb(254,211,174);fill-rule:nonzero;"/>
                </g>
                <g transform="matrix(1,0,0,1,143.506,112.946)">
                    <path d="M0,181C-44.183,181 -80,145.183 -80,101L-80,19.314C-80,8.647 -71.353,0 -60.685,0L60.685,0C71.353,0 80,8.647 80,19.314L80,101C80,145.183 44.183,181 0,181Z" style="fill:none;fill-rule:nonzero;stroke:rgb(254,211,174);stroke-width:0.96px;"/>
                </g>
                <g transform="matrix(1,0,0,1,211.506,374.716)">
                    <path d="M0,-151.593L-136,-151.593C-142.601,-151.593 -148,-146.193 -148,-139.593L-148,-55.805C-148,-25.113 -122.889,0 -92.196,0L-43.805,0C-13.112,0 12,-25.113 12,-55.805L12,-139.593C12,-146.193 6.6,-151.593 0,-151.593Z" style="fill:rgb(30,28,26);fill-rule:nonzero;stroke:rgb(30,28,26);stroke-width:0.96px;"/>
                </g>
                <g transform="matrix(1,0,0,1,173.338,135.562)">
                    <path d="M0,-75.163C16.258,-61.257 18.989,-56.453 17.974,-54.836C15.654,-51.143 -3.929,-67.694 -27.274,-62.505C-41.97,-59.239 -46.178,-50.019 -58.717,-52.152C-68.263,-53.775 -72.177,-60.198 -79.807,-58.287C-87.276,-56.416 -91.14,-48.355 -92.078,-46.4C-101.479,-26.79 -82.302,0 -80.191,-0.769C-78.351,-1.438 -85.94,-24.158 -82.108,-25.693C-79.896,-26.58 -77.302,-19.035 -70.988,-18.024C-63.663,-16.852 -58.843,-25.676 -50.665,-30.678C-43.96,-34.779 -32.65,-37.747 -12.703,-31.445" style="fill:rgb(39,40,37);fill-rule:nonzero;stroke:rgb(29,30,27);stroke-width:0.96px;"/>
                </g>
                <g transform="matrix(1,0,0,1,210.868,109.016)">
                    <path d="M0,-16.787C-0.429,-22.901 -1.567,-29.034 -4.602,-29.825C-12.424,-31.861 -29.574,2.467 -24.924,6.22C-21.55,8.944 -8.934,-6.247 -1.534,-2.216C4.929,1.304 -1.125,14.831 6.902,22.325C13.426,28.417 28.117,29.465 34.128,21.175C38.125,15.661 38.737,6.075 34.128,2.003C23.157,-7.689 -11.223,19.136 -15.338,13.889C-20.1,7.818 25.081,-29.194 18.406,-40.561C15.064,-46.252 -0.22,-43.721 -14.955,-39.794" style="fill:rgb(39,40,37);fill-rule:nonzero;stroke:rgb(29,30,27);stroke-width:0.96px;"/>
                </g>
                <g transform="matrix(1,0,0,1,64.7715,43.5423)">
                    <path d="M0,60.191C1.758,52.808 3.787,45.124 6.135,37.184C12.483,15.717 11.566,10.298 15.722,8.424C24.418,4.503 33.144,23.003 51,22.996C65.451,22.989 79.258,10.863 77.841,6.124C76.011,0 47.068,0.554 46.015,5.357C44.917,10.363 72.57,27.013 101.232,21.845C115.167,19.333 125.077,12.432 130.375,8.041" style="fill:rgb(39,40,37);fill-rule:nonzero;stroke:rgb(29,30,27);stroke-width:0.96px;"/>
                </g>
                <g transform="matrix(1,0,0,1,70.1396,88.8045)">
                    <path d="M0,14.545C-3.925,23.14 -13.589,26.882 -21.09,23.748C-30.186,19.948 -32.78,7.423 -29.142,2.658C-28.329,1.593 -26.646,0.184 -11.503,-0.41C2.018,-0.94 5.358,0 6.519,-1.943C9.358,-6.696 -3.524,-24.18 -11.503,-22.267C-24.991,-19.032 -20.696,38.725 -21.473,38.703C-21.901,38.691 -25.894,21.13 -16.872,6.109C-5.287,-13.181 23.133,-20.58 28.759,-13.83C33.777,-7.811 18.989,7.446 23.774,13.011C31.593,22.105 74.618,-14.518 95.48,-1.56C105.208,4.482 106.93,19.325 106.984,30.267" style="fill:rgb(39,40,37);fill-rule:nonzero;stroke:rgb(29,30,27);stroke-width:0.96px;"/>
                </g>
                <g transform="matrix(1,0,0,1,129.43,162.955)">
                    <path d="M0,0.001C0,10.65 -8.633,19.282 -19.281,19.282C-29.93,19.282 -38.563,10.65 -38.563,0.001C-38.563,-10.648 -29.93,-19.281 -19.281,-19.281C-8.633,-19.281 0,-10.648 0,0.001" style="fill:rgb(254,211,174);fill-rule:nonzero;"/>
                </g>
                <g transform="matrix(0,-1,-1,0,110.149,143.674)">
                    <circle cx="-19.282" cy="0" r="19.282" style="fill:none;stroke:rgb(29,30,27);stroke-width:3px;"/>
                </g>
                <g transform="matrix(1,0,0,1,199.718,162.955)">
                    <path d="M0,0.001C0,10.65 -8.633,19.282 -19.282,19.282C-29.931,19.282 -38.563,10.65 -38.563,0.001C-38.563,-10.648 -29.931,-19.281 -19.282,-19.281C-8.633,-19.281 0,-10.648 0,0.001" style="fill:rgb(254,211,174);fill-rule:nonzero;"/>
                </g>
                <g transform="matrix(0,-1,-1,0,180.437,143.674)">
                    <circle cx="-19.282" cy="0" r="19.282" style="fill:none;stroke:rgb(29,30,27);stroke-width:3px;"/>
                </g>
                <g transform="matrix(1.07976,0,0,1,129.43,162.956)">
                    <path d="M0,0L29.382,0" style="fill:none;fill-rule:nonzero;stroke:rgb(29,30,27);stroke-width:2.88px;"/>
                </g>
                <g transform="matrix(1,0,0,1,143.019,243.821)">
                    <path d="M0,29.268C23.047,29.268 41.731,16.164 41.731,0L-41.731,0C-41.731,16.164 -23.048,29.268 0,29.268" style="fill:rgb(222,168,159);fill-rule:nonzero;"/>
                </g>
                <g transform="matrix(1,0,0,1,143.019,243.821)">
                    <path d="M0,29.268C23.047,29.268 41.731,16.164 41.731,0L-41.731,0C-41.731,16.164 -23.048,29.268 0,29.268Z" style="fill:none;fill-rule:nonzero;stroke:rgb(222,168,159);stroke-width:0.96px;"/>
                </g>
                <g transform="matrix(1,0,0,1,143.505,244.062)">
                    <path d="M0,20.866C-16.45,20.866 -30.217,12.195 -39.422,0L39.423,0C30.219,12.195 16.451,20.866 0,20.866" style="fill:rgb(195,133,126);fill-rule:nonzero;"/>
                </g>
                <g transform="matrix(1,0,0,1,143.505,244.062)">
                    <path d="M0,20.866C-16.45,20.866 -30.217,12.195 -39.422,0L39.423,0C30.219,12.195 16.451,20.866 0,20.866Z" style="fill:none;fill-rule:nonzero;stroke:rgb(195,133,126);stroke-width:0.96px;"/>
                </g>
                <g transform="matrix(-1,0,0,1,278.443,-43.0091)">
                    <rect x="91.687" y="285.071" width="87.389" height="4.092" style="fill:rgb(230,234,228);stroke:rgb(230,234,228);stroke-width:0.12px;stroke-linecap:butt;"/>
                </g>
                <g transform="matrix(1,0,0,1,125.562,88.8045)">
                    <path d="M0,14.545C2.808,23.14 9.719,26.882 15.083,23.748C21.589,19.948 23.443,7.423 20.842,2.658C20.261,1.593 19.057,0.184 8.227,-0.41C-1.443,-0.94 -3.832,0 -4.662,-1.943C-6.693,-6.696 2.521,-24.18 8.227,-22.267C17.873,-19.032 14.801,38.725 15.357,38.703C15.664,38.691 18.519,21.13 12.066,6.109C3.781,-13.181 -16.543,-20.58 -20.568,-13.83C-24.156,-7.811 -13.581,7.446 -17.002,13.011C-22.595,22.105 -53.365,-14.518 -68.285,-1.56C-75.243,4.482 -76.473,19.325 -76.512,30.267" style="fill:rgb(39,40,37);fill-rule:nonzero;stroke:rgb(29,30,27);stroke-width:0.96px;"/>
                </g>
                <g transform="matrix(1,0,0,1,176.978,83.6211)">
                    <path d="M0,16.787C-0.186,22.901 -0.678,29.034 -1.99,29.824C-5.374,31.861 -12.791,-2.467 -10.78,-6.22C-9.32,-8.944 -3.864,6.247 -0.664,2.216C2.131,-1.304 -0.486,-14.831 2.985,-22.325C5.807,-28.417 12.161,-29.465 14.76,-21.175C16.489,-15.661 16.754,-6.075 14.76,-2.003C10.016,7.689 -4.854,-19.136 -6.634,-13.89C-8.693,-7.818 10.848,29.193 7.96,40.561C6.515,46.252 -0.095,43.721 -6.468,39.794" style="fill:rgb(39,40,37);fill-rule:nonzero;stroke:rgb(29,30,27);stroke-width:0.96px;"/>
                </g>
            </g>
        </g>
    </g>
</svg>
